<svg aria-hidden="true" style="position: absolute; width: 0; height: 0; overflow: hidden;" version="1.1" xmlns="http://www.w3.org/2000/svg" xmlns:xlink="http://www.w3.org/1999/xlink">
<defs>
<symbol width="60" id="icon-cart" viewBox="0 0 6 6">
<title>icon-cart</title>
<path d="M3.782 0.781h0l-0.528 1.173c-0.026 0.058-0.082 0.099-0.149 0.103v0l-1.521 0.101 0.088 0.251h1.656c0.194 0 0.352 0.158 0.352 0.352s-0.158 0.352-0.352 0.352-0.352-0.158-0.352-0.352h-1.643c0 0.194-0.158 0.352-0.352 0.352s-0.352-0.158-0.352-0.352c0-0.195 0.158-0.352 0.352-0.352h0.318l-0.678-1.936h-0.403c-0.097 0-0.176-0.079-0.176-0.176s0.079-0.176 0.176-0.176h0.528c0.077 0 0.141 0.049 0.166 0.118l0.001-0 0.102 0.293h2.606c0.097 0 0.176 0.079 0.176 0.176 0 0.026-0.006 0.050-0.016 0.072zM1.139 0.885l0.325 0.93 1.512-0.101 0.373-0.829h-2.211z"></path>
</symbol>
<symbol  id="icon-search" viewBox="0 0 6 6">
<title>icon-search</title>
<path d="M3.694 3.196c0.064 0.064 0.103 0.152 0.103 0.249 0 0.194-0.158 0.352-0.352 0.352-0.097 0-0.185-0.039-0.249-0.103v0l-1.032-1.031c-0.21 0.124-0.453 0.196-0.714 0.196-0.778 0-1.408-0.63-1.408-1.408s0.63-1.408 1.408-1.408c0.778 0 1.408 0.63 1.408 1.408 0 0.261-0.072 0.505-0.196 0.714l1.032 1.032zM1.451 0.394c-0.583 0-1.056 0.473-1.056 1.056s0.473 1.056 1.056 1.056c0.583 0 1.056-0.473 1.056-1.056s-0.473-1.056-1.056-1.056z"></path>
</symbol>
</defs>
</svg>
